<svg xmlns="http://www.w3.org/2000/svg" viewBox="0 0 1024 1024">
  <defs>
    <linearGradient id="grad" x1="0%" y1="0%" x2="100%" y2="100%">
      <stop offset="0%" style="stop-color:#1a1a2e;stop-opacity:1" />
      <stop offset="100%" style="stop-color:#0b0b14;stop-opacity:1" />
    </linearGradient>
  </defs>
  <rect width="1024" height="1024" rx="200" fill="url(#grad)" />
  <g transform="translate(256, 256) scale(21.33)">
    <path d="M16.5 9.4 7.55 4.24" stroke="#5b8af9" stroke-width="2" stroke-linecap="round" stroke-linejoin="round" fill="none"/>
    <path d="M21 16V8a2 2 0 0 0-1-1.73l-7-4a2 2 0 0 0-2 0l-7 4A2 2 0 0 0 3 8v8a2 2 0 0 0 1 1.73l7 4a2 2 0 0 0 2 0l7-4a2 2 0 0 0 1-1.73Z" stroke="#5b8af9" stroke-width="2" stroke-linecap="round" stroke-linejoin="round" fill="none"/>
    <path d="m3.27 6.96 8.73 5.04 8.73-5.04" stroke="#5b8af9" stroke-width="2" stroke-linecap="round" stroke-linejoin="round" fill="none"/>
    <path d="M12 22.08V12" stroke="#5b8af9" stroke-width="2" stroke-linecap="round" stroke-linejoin="round" fill="none"/>
  </g>
</svg>
